<svg width="144" height="41" viewBox="0 0 144 41" fill="none" xmlns="http://www.w3.org/2000/svg">
<path d="M9.24661 40.9979C8.87454 40.9979 8.51145 40.9937 8.1423 40.9864C7.37757 40.9776 6.61463 40.9192 5.85973 40.8116C5.15583 40.7052 4.47393 40.5072 3.83654 40.2243C3.205 39.9437 2.62897 39.5758 2.13054 39.1347C1.6249 38.6987 1.20393 38.1931 0.88431 37.6379C0.561171 37.079 0.33754 36.4799 0.221206 35.8616C0.0955754 35.1972 0.0276042 34.5254 0.0178782 33.8519C0.0101359 33.6259 0 32.8732 0 32.8732V8.11312C0 8.11312 0.0107953 7.37204 0.0179393 7.15431C0.0272518 6.48193 0.0948279 5.81114 0.220082 5.14776C0.336631 4.52772 0.560436 3.92695 0.883749 3.36625C1.20219 2.81137 1.62083 2.30538 2.12342 1.86787C2.62546 1.42621 3.20332 1.05641 3.83594 0.771949C4.47187 0.489931 5.15247 0.293397 5.85496 0.188933C6.61233 0.0802123 7.37792 0.0214326 8.1453 0.0130872L9.24721 0H134.747L135.862 0.0136124C136.622 0.0215431 137.381 0.0797984 138.131 0.187883C138.841 0.293657 139.529 0.491562 140.172 0.77509C141.439 1.34836 142.47 2.25532 143.121 3.36887C143.439 3.9257 143.66 4.52156 143.775 5.13624C143.901 5.80507 143.972 6.48113 143.987 7.15903C143.99 7.46257 143.99 7.78863 143.99 8.11312C144 8.51505 144 8.89763 144 9.28334V31.7155C144 32.1049 144 32.4849 143.99 32.868C143.99 33.2165 143.99 33.5358 143.986 33.8644C143.971 34.5302 143.902 35.1942 143.777 35.8511C143.663 36.4739 143.441 37.0776 143.117 37.6411C142.796 38.1903 142.377 38.6915 141.877 39.1263C141.378 39.5698 140.801 39.9399 140.168 40.2223C139.527 40.5074 138.84 40.706 138.131 40.8116C137.377 40.9198 136.613 40.9782 135.849 40.9864C135.491 40.9937 135.116 40.9979 134.753 40.9979L133.429 41L9.24661 40.9979Z" fill="black"/>
<path d="M28.4946 20.8228C28.5061 19.9255 28.7433 19.0457 29.184 18.2653C29.6247 17.4849 30.2547 16.8293 31.0153 16.3593C30.5321 15.6657 29.8947 15.095 29.1536 14.6923C28.4125 14.2897 27.5882 14.0663 26.7461 14.0398C24.9499 13.8503 23.2086 15.12 22.2933 15.12C21.3602 15.12 19.9509 14.0586 18.4334 14.09C17.4518 14.1218 16.4951 14.4087 15.6566 14.9226C14.8182 15.4365 14.1264 16.16 13.6489 17.0224C11.5801 20.622 13.1232 25.9121 15.1049 28.8217C16.0964 30.2465 17.2551 31.838 18.7713 31.7815C20.255 31.7197 20.8091 30.8307 22.6 30.8307C24.3744 30.8307 24.8942 31.7815 26.4412 31.7456C28.0333 31.7197 29.0363 30.3146 29.993 28.8763C30.7054 27.8611 31.2535 26.7391 31.6172 25.5519C30.6923 25.1587 29.9029 24.5006 29.3477 23.6596C28.7924 22.8187 28.4957 21.832 28.4946 20.8228Z" fill="white"/>
<path d="M25.5728 12.1264C26.4409 11.0792 26.8685 9.73307 26.765 8.37402C25.4388 8.51401 24.2137 9.15101 23.3339 10.1581C22.9038 10.6501 22.5743 11.2225 22.3644 11.8425C22.1545 12.4625 22.0682 13.118 22.1106 13.7716C22.7739 13.7785 23.4301 13.634 24.0299 13.349C24.6296 13.064 25.1571 12.646 25.5728 12.1264Z" fill="white"/>
<path d="M51.2493 28.1748H46.1861L44.9702 31.7829H42.8257L47.6214 18.4336H49.8495L54.6452 31.7829H52.4641L51.2493 28.1748ZM46.7105 26.5098H50.7239L48.7454 20.654H48.6901L46.7105 26.5098Z" fill="white"/>
<path d="M65.0023 26.9168C65.0023 29.9413 63.3916 31.8845 60.9608 31.8845C60.345 31.9169 59.7327 31.7743 59.1938 31.4732C58.6549 31.172 58.2113 30.7244 57.9137 30.1817H57.8677V35.0024H55.8799V22.0499H57.8041V23.6687H57.8406C58.1518 23.1286 58.6029 22.6833 59.1459 22.3803C59.6889 22.0773 60.3035 21.928 60.9242 21.9481C63.3821 21.9481 65.0023 23.9007 65.0023 26.9168ZM62.9591 26.9168C62.9591 24.9463 61.9458 23.6509 60.3999 23.6509C58.881 23.6509 57.8594 24.9736 57.8594 26.9168C57.8594 28.8779 58.881 30.1912 60.3999 30.1912C61.9459 30.1912 62.9591 28.9052 62.9591 26.9168Z" fill="white"/>
<path d="M75.6615 26.9168C75.6615 29.9413 74.0507 31.8845 71.62 31.8845C71.0042 31.9169 70.3918 31.7743 69.853 31.4732C69.3141 31.172 68.8705 30.7244 68.5729 30.1817H68.5269V35.0024H66.5391V22.0499H68.4632V23.6687H68.4997C68.811 23.1286 69.2621 22.6833 69.8051 22.3803C70.3481 22.0773 70.9626 21.928 71.5834 21.9481C74.0413 21.9481 75.6615 23.9007 75.6615 26.9168ZM73.6183 26.9168C73.6183 24.9463 72.605 23.6509 71.059 23.6509C69.5402 23.6509 68.5186 24.9736 68.5186 26.9168C68.5186 28.8778 69.5402 30.1912 71.059 30.1912C72.605 30.1912 73.6183 28.9051 73.6183 26.9168H73.6183Z" fill="white"/>
<path d="M82.7058 28.0634C82.8531 29.3872 84.1327 30.2564 85.8813 30.2564C87.5569 30.2564 88.7623 29.3872 88.7623 28.1935C88.7623 27.1574 88.0353 26.537 86.3138 26.1118L84.5923 25.695C82.1532 25.1029 81.0209 23.9565 81.0209 22.0963C81.0209 19.793 83.0181 18.2109 85.8542 18.2109C88.661 18.2109 90.5851 19.793 90.6499 22.0963H88.6432C88.5231 20.7641 87.4273 19.9599 85.826 19.9599C84.2246 19.9599 83.1288 20.7735 83.1288 21.9577C83.1288 22.9015 83.8287 23.4568 85.5408 23.8819L87.0042 24.2431C89.7296 24.8908 90.8619 25.991 90.8619 27.9436C90.8619 30.4411 88.8824 32.0053 85.734 32.0053C82.7883 32.0053 80.7994 30.4779 80.6709 28.0633L82.7058 28.0634Z" fill="white"/>
<path d="M95.1524 19.7471V22.0503H96.994V23.6324H95.1524V28.998C95.1524 29.8315 95.5212 30.2199 96.3307 30.2199C96.5494 30.2161 96.7676 30.2007 96.9846 30.1737V31.7463C96.6207 31.8147 96.2507 31.8456 95.8805 31.8387C93.9198 31.8387 93.1552 31.0986 93.1552 29.211V23.6324H91.7471V22.0503H93.1551V19.7471H95.1524Z" fill="white"/>
<path d="M98.0605 26.9172C98.0605 23.855 99.8551 21.9307 102.654 21.9307C105.461 21.9307 107.248 23.8549 107.248 26.9172C107.248 29.9879 105.471 31.9038 102.654 31.9038C99.8373 31.9038 98.0605 29.9879 98.0605 26.9172ZM105.222 26.9172C105.222 24.8166 104.264 23.5768 102.654 23.5768C101.043 23.5768 100.086 24.826 100.086 26.9172C100.086 29.0263 101.043 30.2567 102.654 30.2567C104.264 30.2567 105.222 29.0263 105.222 26.9172H105.222Z" fill="white"/>
<path d="M108.887 22.0498H110.783V23.7064H110.829C110.957 23.189 111.259 22.7318 111.683 22.4116C112.107 22.0913 112.628 21.9276 113.158 21.948C113.387 21.9472 113.616 21.9722 113.839 22.0225V23.8912C113.55 23.8024 113.248 23.7616 112.946 23.7705C112.657 23.7587 112.369 23.8098 112.102 23.9205C111.835 24.0311 111.595 24.1985 111.398 24.4112C111.201 24.6239 111.052 24.8769 110.962 25.1529C110.872 25.4288 110.842 25.7211 110.875 26.0097V31.7826H108.887L108.887 22.0498Z" fill="white"/>
<path d="M123.004 28.9245C122.737 30.6913 121.024 31.9038 118.834 31.9038C116.017 31.9038 114.268 30.0068 114.268 26.9634C114.268 23.9106 116.026 21.9307 118.75 21.9307C121.43 21.9307 123.115 23.7804 123.115 26.7314V27.4159H116.275V27.5366C116.243 27.8948 116.288 28.2556 116.406 28.5952C116.523 28.9347 116.712 29.2451 116.958 29.5059C117.205 29.7666 117.503 29.9717 117.835 30.1075C118.166 30.2432 118.522 30.3066 118.88 30.2934C119.35 30.3376 119.821 30.2283 120.224 29.9816C120.627 29.735 120.94 29.3642 121.116 28.9244L123.004 28.9245ZM116.284 26.0196H121.126C121.144 25.6976 121.095 25.3753 120.983 25.073C120.871 24.7707 120.698 24.4949 120.475 24.263C120.252 24.031 119.984 23.8479 119.687 23.7251C119.39 23.6023 119.071 23.5425 118.75 23.5495C118.427 23.5475 118.106 23.61 117.806 23.7334C117.507 23.8567 117.234 24.0385 117.005 24.2681C116.776 24.4978 116.594 24.7708 116.47 25.0714C116.347 25.372 116.283 25.6943 116.284 26.0197V26.0196Z" fill="white"/>
<path d="M45.4612 8.3857C45.8779 8.35564 46.2961 8.41891 46.6856 8.57096C47.0751 8.723 47.4261 8.96001 47.7134 9.26491C48.0007 9.56981 48.2171 9.93498 48.347 10.3341C48.4768 10.7332 48.5169 11.1563 48.4644 11.5729C48.4644 13.6221 47.3623 14.8001 45.4612 14.8001H43.1558V8.3857H45.4612ZM44.1471 13.8929H45.3504C45.6482 13.9108 45.9463 13.8617 46.2228 13.7493C46.4994 13.6368 46.7475 13.4638 46.9491 13.2428C47.1507 13.0218 47.3008 12.7585 47.3883 12.4718C47.4759 12.1852 47.4988 11.8826 47.4553 11.586C47.4956 11.2905 47.4704 10.9898 47.3815 10.7053C47.2926 10.4207 47.1422 10.1595 46.941 9.94029C46.7399 9.72107 46.4929 9.54927 46.2179 9.43722C45.943 9.32516 45.6467 9.27562 45.3504 9.29215H44.1471V13.8929Z" fill="white"/>
<path d="M49.584 12.3778C49.5537 12.0597 49.5899 11.7387 49.6903 11.4355C49.7907 11.1323 49.953 10.8535 50.1669 10.617C50.3807 10.3805 50.6414 10.1916 50.9322 10.0623C51.223 9.933 51.5375 9.86621 51.8555 9.86621C52.1734 9.86621 52.4879 9.933 52.7787 10.0623C53.0695 10.1916 53.3302 10.3805 53.544 10.617C53.7579 10.8535 53.9202 11.1323 54.0206 11.4355C54.121 11.7387 54.1572 12.0597 54.1269 12.3778C54.1578 12.6963 54.122 13.0177 54.0219 13.3214C53.9218 13.6251 53.7595 13.9044 53.5456 14.1413C53.3317 14.3783 53.0708 14.5676 52.7797 14.6972C52.4886 14.8268 52.1738 14.8937 51.8555 14.8937C51.5371 14.8937 51.2223 14.8268 50.9312 14.6972C50.6401 14.5676 50.3792 14.3783 50.1653 14.1413C49.9514 13.9044 49.7891 13.6251 49.689 13.3214C49.5889 13.0177 49.5531 12.6963 49.584 12.3778ZM53.1492 12.3778C53.1492 11.3285 52.6801 10.7149 51.857 10.7149C51.0307 10.7149 50.5659 11.3285 50.5659 12.3778C50.5659 13.4355 51.0308 14.0444 51.857 14.0444C52.6802 14.0444 53.1492 13.4313 53.1492 12.3778H53.1492Z" fill="white"/>
<path d="M60.166 14.8001H59.1799L58.1844 11.235H58.1092L57.1178 14.8001H56.1412L54.8135 9.95947H55.7776L56.6405 13.6532H56.7115L57.7018 9.95947H58.6137L59.604 13.6532H59.6792L60.5378 9.95947H61.4884L60.166 14.8001Z" fill="white"/>
<path d="M62.605 9.95953H63.52V10.7285H63.5911C63.7116 10.4523 63.9148 10.2208 64.1725 10.0662C64.4301 9.91161 64.7293 9.84166 65.0284 9.86609C65.2628 9.84838 65.4981 9.8839 65.717 9.97C65.9358 10.0561 66.1326 10.1906 66.2927 10.3635C66.4528 10.5364 66.5722 10.7433 66.6419 10.9689C66.7116 11.1944 66.73 11.4329 66.6956 11.6665V14.8001H65.745V11.9064C65.745 11.1285 65.4087 10.7416 64.7057 10.7416C64.5465 10.7342 64.3877 10.7614 64.24 10.8214C64.0923 10.8814 63.9593 10.9728 63.8501 11.0894C63.7409 11.2059 63.658 11.3447 63.6071 11.4965C63.5563 11.6482 63.5387 11.8091 63.5556 11.9683V14.8002H62.605L62.605 9.95953Z" fill="white"/>
<path d="M68.2104 8.06982H69.161V14.8001H68.2104V8.06982Z" fill="white"/>
<path d="M70.4824 12.3779C70.4521 12.0598 70.4884 11.7388 70.5888 11.4356C70.6892 11.1323 70.8515 10.8535 71.0654 10.617C71.2793 10.3805 71.54 10.1916 71.8308 10.0623C72.1216 9.933 72.4361 9.86621 72.7541 9.86621C73.0721 9.86621 73.3866 9.933 73.6774 10.0623C73.9682 10.1916 74.2289 10.3805 74.4428 10.617C74.6567 10.8535 74.8191 11.1323 74.9195 11.4356C75.0199 11.7388 75.0561 12.0598 75.0258 12.3779C75.0567 12.6964 75.0208 13.0178 74.9207 13.3215C74.8206 13.6252 74.6583 13.9045 74.4444 14.1414C74.2304 14.3784 73.9695 14.5677 73.6784 14.6973C73.3873 14.8268 73.0725 14.8938 72.7541 14.8938C72.4358 14.8938 72.1209 14.8268 71.8298 14.6973C71.5387 14.5677 71.2778 14.3784 71.0639 14.1414C70.8499 13.9045 70.6877 13.6252 70.5875 13.3215C70.4874 13.0178 70.4516 12.6964 70.4824 12.3779ZM74.0476 12.3779C74.0476 11.3286 73.5786 10.715 72.7554 10.715C71.9292 10.715 71.4643 11.3286 71.4643 12.3779C71.4643 13.4356 71.9292 14.0445 72.7554 14.0445C73.5786 14.0445 74.0476 13.4314 74.0476 12.3779H74.0476Z" fill="white"/>
<path d="M76.0264 13.4313C76.0264 12.56 76.6719 12.0577 77.8178 11.9863L79.1225 11.9107V11.4929C79.1225 10.9816 78.7862 10.6929 78.1364 10.6929C77.6058 10.6929 77.2381 10.8887 77.1326 11.231H76.2123C76.3095 10.3995 77.0877 9.86621 78.1803 9.86621C79.3879 9.86621 80.0689 10.4704 80.0689 11.4929V14.8003H79.1539V14.12H79.0787C78.926 14.364 78.7117 14.563 78.4575 14.6965C78.2033 14.83 77.9184 14.8934 77.6319 14.88C77.4297 14.9012 77.2253 14.8795 77.032 14.8164C76.8386 14.7533 76.6606 14.6502 76.5093 14.5137C76.358 14.3772 76.2369 14.2104 76.1537 14.0239C76.0706 13.8375 76.0272 13.6356 76.0264 13.4313ZM79.1225 13.0177V12.613L77.9463 12.6886C77.283 12.7332 76.9822 12.96 76.9822 13.3867C76.9822 13.8224 77.3582 14.0759 77.8753 14.0759C78.0268 14.0913 78.1799 14.0759 78.3254 14.0307C78.4709 13.9855 78.6058 13.9113 78.7222 13.8125C78.8385 13.7138 78.9339 13.5926 79.0027 13.456C79.0715 13.3195 79.1123 13.1704 79.1225 13.0177Z" fill="white"/>
<path d="M81.3184 12.3777C81.3184 10.8482 82.1008 9.87918 83.3177 9.87918C83.6187 9.86524 83.9175 9.9377 84.179 10.0881C84.4406 10.2385 84.6542 10.4606 84.7948 10.7284H84.8658V8.06982H85.8164V14.8001H84.9055V14.0353H84.8303C84.6788 14.3014 84.4578 14.5207 84.1912 14.6696C83.9246 14.8185 83.6225 14.8912 83.3177 14.8799C82.0924 14.8799 81.3184 13.911 81.3184 12.3777ZM82.3003 12.3777C82.3003 13.4044 82.7819 14.0222 83.5873 14.0222C84.3884 14.0222 84.8836 13.3955 84.8836 12.3819C84.8836 11.3731 84.3832 10.7374 83.5873 10.7374C82.7871 10.7374 82.3003 11.3594 82.3003 12.3777H82.3003Z" fill="white"/>
<path d="M89.749 12.3778C89.7187 12.0597 89.755 11.7387 89.8553 11.4355C89.9557 11.1323 90.118 10.8535 90.3319 10.617C90.5458 10.3805 90.8065 10.1916 91.0973 10.0623C91.388 9.933 91.7025 9.86621 92.0205 9.86621C92.3385 9.86621 92.6529 9.933 92.9437 10.0623C93.2345 10.1916 93.4952 10.3805 93.7091 10.617C93.9229 10.8535 94.0853 11.1323 94.1856 11.4355C94.286 11.7387 94.3222 12.0597 94.292 12.3778C94.3228 12.6963 94.287 13.0177 94.1869 13.3214C94.0868 13.6251 93.9246 13.9044 93.7106 14.1413C93.4967 14.3783 93.2358 14.5676 92.9448 14.6972C92.6537 14.8268 92.3388 14.8937 92.0205 14.8937C91.7021 14.8937 91.3873 14.8268 91.0962 14.6972C90.8051 14.5676 90.5442 14.3783 90.3303 14.1413C90.1164 13.9044 89.9542 13.6251 89.8541 13.3214C89.7539 13.0177 89.7182 12.6963 89.749 12.3778ZM93.3142 12.3778C93.3142 11.3285 92.8452 10.7149 92.0221 10.7149C91.1958 10.7149 90.731 11.3285 90.731 12.3778C90.731 13.4355 91.1958 14.0444 92.0221 14.0444C92.8452 14.0444 93.3142 13.4313 93.3142 12.3778Z" fill="white"/>
<path d="M95.5674 9.95953H96.4824V10.7285H96.5535C96.674 10.4523 96.8772 10.2208 97.1349 10.0662C97.3925 9.91161 97.6918 9.84166 97.9908 9.86609C98.2252 9.84838 98.4605 9.8839 98.6794 9.97C98.8982 10.0561 99.095 10.1906 99.2551 10.3635C99.4152 10.5364 99.5346 10.7433 99.6043 10.9689C99.6741 11.1944 99.6924 11.4329 99.658 11.6665V14.8001H98.7074V11.9064C98.7074 11.1285 98.3711 10.7416 97.6681 10.7416C97.5089 10.7342 97.3501 10.7614 97.2024 10.8214C97.0547 10.8814 96.9217 10.9728 96.8125 11.0894C96.7033 11.2059 96.6204 11.3447 96.5695 11.4965C96.5187 11.6482 96.5011 11.8091 96.518 11.9683V14.8002H95.5674V9.95953Z" fill="white"/>
<path d="M105.03 8.75391V9.98113H106.073V10.7858H105.03V13.2749C105.03 13.7819 105.238 14.004 105.711 14.004C105.832 14.0036 105.953 13.9962 106.073 13.9819V14.7777C105.903 14.8084 105.73 14.8247 105.556 14.8265C104.499 14.8265 104.078 14.4528 104.078 13.5195V10.7858H103.313V9.98108H104.078V8.75391H105.03Z" fill="white"/>
<path d="M107.372 8.06982H108.314V10.7374H108.389C108.515 10.4586 108.724 10.2258 108.987 10.0706C109.25 9.91543 109.554 9.84547 109.858 9.87024C110.091 9.85749 110.324 9.89661 110.54 9.98481C110.757 10.073 110.951 10.2081 111.109 10.3805C111.268 10.5528 111.386 10.7582 111.457 10.982C111.527 11.2057 111.548 11.4423 111.516 11.6749V14.8001H110.565V11.9105C110.565 11.1373 110.207 10.7458 109.535 10.7458C109.372 10.7323 109.207 10.7549 109.053 10.8119C108.9 10.8689 108.76 10.9591 108.645 11.0759C108.529 11.1928 108.44 11.3337 108.385 11.4886C108.329 11.6436 108.308 11.8089 108.322 11.973V14.8001H107.372L107.372 8.06982Z" fill="white"/>
<path d="M117.059 13.4934C116.93 13.9358 116.65 14.3185 116.269 14.5745C115.887 14.8305 115.428 14.9435 114.972 14.8938C114.655 14.9022 114.339 14.8411 114.048 14.7148C113.756 14.5885 113.496 14.3999 113.284 14.1622C113.072 13.9244 112.915 13.6433 112.822 13.3381C112.729 13.033 112.704 12.7113 112.747 12.3953C112.705 12.0783 112.731 11.7558 112.823 11.4498C112.916 11.1438 113.073 10.8613 113.283 10.6215C113.494 10.3817 113.753 10.1902 114.044 10.0599C114.335 9.92958 114.65 9.86356 114.968 9.86629C116.308 9.86629 117.117 10.7865 117.117 12.3065V12.6399H113.715V12.6934C113.701 12.8711 113.723 13.0499 113.781 13.2184C113.839 13.3869 113.931 13.5414 114.052 13.6719C114.172 13.8025 114.319 13.9063 114.482 13.9766C114.645 14.0469 114.821 14.0822 114.998 14.0802C115.226 14.1076 115.456 14.0665 115.66 13.962C115.864 13.8575 116.033 13.6943 116.144 13.4933L117.059 13.4934ZM113.715 11.9334H116.148C116.16 11.7709 116.138 11.6077 116.084 11.4543C116.029 11.3009 115.943 11.1606 115.832 11.0425C115.72 10.9244 115.585 10.8311 115.435 10.7686C115.286 10.706 115.125 10.6756 114.963 10.6794C114.798 10.6773 114.635 10.7083 114.483 10.7706C114.331 10.8329 114.192 10.9252 114.076 11.0421C113.96 11.1589 113.868 11.298 113.806 11.4511C113.744 11.6041 113.713 11.7681 113.715 11.9334H113.715Z" fill="white"/>
</svg>
